<?xml version="1.0" standalone="no"?>
<!DOCTYPE svg PUBLIC "-//W3C//DTD SVG 20010904//EN"
 "http://www.w3.org/TR/2001/REC-SVG-20010904/DTD/svg10.dtd">
<svg version="1.0" xmlns="http://www.w3.org/2000/svg"
 width="16.000000pt" height="16.000000pt" viewBox="0 0 16.000000 16.000000"
 preserveAspectRatio="xMidYMid meet">
<metadata>
Created by potrace 1.11, written by Peter Selinger 2001-2013
</metadata>
<g transform="translate(0.000000,16.000000) scale(0.007143,-0.007143)"
fill="#000000" stroke="none">
<path d="M721 2154 c-12 -15 -21 -32 -21 -38 0 -11 -18 -216 -60 -671 -11
-121 -24 -269 -28 -329 l-8 -109 331 6 c395 7 493 19 605 74 120 58 231 180
335 366 21 39 34 72 29 77 -10 9 -315 202 -614 388 -102 63 -243 148 -315 188
-115 66 -135 74 -181 74 -45 0 -56 -4 -73 -26z m416 -301 c82 -39 183 -217
191 -338 5 -86 -8 -139 -47 -186 -31 -37 -105 -79 -141 -79 -11 0 -26 12 -34
29 l-15 29 44 11 c24 6 60 25 79 42 57 49 66 107 34 208 l-10 33 -18 -38 c-43
-94 -145 -132 -221 -81 -102 69 -132 238 -56 324 54 62 125 79 194 46z m373
-534 c7 -11 10 -22 8 -24 -2 -2 -84 -42 -182 -89 -177 -86 -195 -90 -196 -51
0 9 332 183 352 184 4 1 12 -8 18 -20z"/>
<path d="M998 1770 c-28 -29 -30 -35 -26 -90 3 -48 10 -67 35 -97 28 -35 34
-38 83 -38 46 0 55 3 74 28 30 40 27 102 -8 161 -30 52 -51 66 -96 66 -22 0
-41 -9 -62 -30z"/>
<path d="M588 1957 c-21 -39 -112 -209 -203 -376 -367 -674 -355 -649 -355
-727 0 -90 33 -166 83 -190 32 -15 36 -15 83 9 27 14 63 36 81 49 62 47 243
212 260 237 12 19 20 71 29 206 7 99 22 308 33 465 12 157 24 311 27 343 4 31
5 57 3 57 -2 0 -21 -33 -41 -73z m-48 -383 c0 -27 -40 -128 -66 -167 -20 -30
-23 -41 -13 -53 29 -36 -31 -194 -113 -294 -39 -47 -128 -114 -128 -95 0 21
32 75 44 75 42 0 120 101 152 194 21 62 8 78 -37 45 l-32 -23 7 28 c4 15 22
41 42 58 43 38 80 101 89 151 10 50 -4 48 -65 -9 -59 -55 -70 -37 -18 28 46
58 107 101 124 87 8 -6 14 -18 14 -25z"/>
<path d="M1295 1982 c10 -9 384 -246 563 -356 103 -64 193 -107 296 -142 38
-13 71 -24 73 -24 2 0 -18 20 -44 45 -110 103 -206 156 -763 422 -74 35 -130
60 -125 55z"/>
<path d="M1939 1437 c-88 -174 -246 -354 -358 -407 l-53 -25 7 -175 c3 -96 10
-298 15 -449 5 -150 12 -276 15 -279 11 -11 44 33 86 113 23 44 151 280 284
525 333 613 307 560 303 610 l-3 43 -65 22 c-36 12 -95 36 -133 53 l-67 31
-31 -62z m77 -300 c-7 -19 -68 -107 -135 -196 -134 -180 -171 -243 -171 -296
0 -46 15 -45 79 5 28 22 51 39 51 37 0 -28 -31 -73 -68 -101 -90 -65 -129 -57
-117 23 10 69 63 162 180 320 58 79 105 145 103 146 -2 2 -29 -8 -62 -21 -32
-14 -60 -23 -63 -20 -3 2 1 17 9 32 10 21 35 36 103 65 50 21 93 38 98 39 4 0
1 -15 -7 -33z"/>
<path d="M1410 968 c-19 -5 -209 -13 -422 -17 -213 -3 -390 -10 -395 -15 -122
-124 -299 -271 -374 -311 l-62 -33 44 -25 c49 -29 1115 -461 1195 -485 30 -8
63 -12 80 -8 l27 7 -7 282 c-3 155 -9 357 -13 450 -7 184 -2 175 -73 155z
m-397 -249 c12 -6 34 -23 50 -37 31 -30 37 -81 10 -103 -14 -12 -9 -15 46 -20
69 -7 102 -26 139 -80 27 -40 23 -71 -15 -111 -55 -58 -200 -94 -277 -68 -20
6 -52 26 -71 45 -42 39 -47 86 -13 122 l21 23 -42 0 c-78 0 -151 51 -151 105
0 62 121 135 223 135 32 0 68 -5 80 -11z"/>
<path d="M861 667 c-33 -13 -71 -50 -71 -69 0 -5 14 -23 30 -40 29 -28 35 -30
86 -26 96 8 143 68 90 117 -29 27 -88 35 -135 18z"/>
<path d="M1020 508 c-37 -10 -90 -54 -90 -74 0 -24 52 -74 89 -85 44 -13 104
0 145 32 51 40 22 107 -55 129 -39 12 -42 11 -89 -2z"/>
</g>
</svg>
